<svg width="96" height="96" viewBox="0 0 96 96" fill="none" xmlns="http://www.w3.org/2000/svg">
  <title>Rialo Temple logo</title>
  <path d="M13.7 39.4C17.2 18.5 34.5 8 54.2 12.1c18.1 3.8 31.2 18.5 28.7 39.2-2.6 21.6-20.7 34.5-41 31.5C22.6 79.9 10.2 60.3 13.7 39.4Z" fill="#0A1215"/>
  <path d="M13.7 39.4C17.2 18.5 34.5 8 54.2 12.1c18.1 3.8 31.2 18.5 28.7 39.2-2.6 21.6-20.7 34.5-41 31.5C22.6 79.9 10.2 60.3 13.7 39.4Z" fill="url(#badgeGlow)"/>
  <path d="M18.8 62.6c12.1 13.9 34.2 17 51.6 5.2" stroke="#FFE45E" stroke-width="5.2" stroke-linecap="round" opacity=".9"/>

  <path d="M48 11.8c7.1 6.1 12.3 12 11.1 21.2-1 7.7-6.1 12.1-11.1 13.1-5-1-10.1-5.4-11.1-13.1-1.2-9.2 4-15.1 11.1-21.2Z" fill="#121A1C" stroke="#121A1C" stroke-width="5" stroke-linejoin="round"/>
  <path d="M48 12.6c6.4 5.6 10.9 11 9.9 19.3-.9 6.9-5.4 10.8-9.9 11.8-4.5-1-9-4.9-9.9-11.8-1-8.3 3.5-13.7 9.9-19.3Z" fill="url(#flameCandy)"/>
  <path d="M48 21.3c3.1 3.2 5.3 6.1 4.8 10.4-.4 3.3-2.5 5.4-4.8 6.2-2.3-.8-4.4-2.9-4.8-6.2-.5-4.3 1.7-7.2 4.8-10.4Z" fill="#FFF7D8" opacity=".82"/>

  <path d="M25.2 48.4 48 31.4l22.8 17v23.3c0 3.7-3 6.7-6.7 6.7H31.9c-3.7 0-6.7-3-6.7-6.7V48.4Z" fill="#121A1C" stroke="#121A1C" stroke-width="5" stroke-linejoin="round"/>
  <path d="M28.7 49.7 48 35.3l19.3 14.4v20.9c0 2.9-2.3 5.2-5.2 5.2H33.9c-2.9 0-5.2-2.3-5.2-5.2V49.7Z" fill="url(#templeBody)" stroke="#FFF7D8" stroke-width="2.4" stroke-linejoin="round"/>
  <path d="M24 49.4 48 31.2l24 18.2" stroke="#FFE45E" stroke-width="6.6" stroke-linecap="round" stroke-linejoin="round"/>
  <path d="M29.3 48.8 48 35.1l18.7 13.7" stroke="#FF7AD9" stroke-width="3.2" stroke-linecap="round" stroke-linejoin="round"/>

  <path d="M38.2 75.6V61.8c0-5.4 4.3-9.8 9.8-9.8s9.8 4.4 9.8 9.8v13.8H38.2Z" fill="#121A1C"/>
  <path d="M41.8 75.6V62.2c0-3.4 2.7-6.2 6.2-6.2 3.5 0 6.2 2.8 6.2 6.2v13.4H41.8Z" fill="#61F7A4"/>
  <path d="M43.4 65.4c1.8 1.8 3.3 2.5 4.6 2.5s2.8-.7 4.6-2.5" stroke="#121A1C" stroke-width="2.6" stroke-linecap="round"/>

  <circle cx="37.8" cy="57.2" r="3.3" fill="#121A1C"/>
  <circle cx="58.2" cy="57.2" r="3.3" fill="#121A1C"/>
  <circle cx="36.7" cy="56" r="1" fill="#FFF7D8"/>
  <circle cx="57.1" cy="56" r="1" fill="#FFF7D8"/>
  <path d="M42.4 66.2c3.5 3 7.7 3 11.2 0" stroke="#121A1C" stroke-width="3" stroke-linecap="round"/>
  <circle cx="33.2" cy="63.3" r="2.6" fill="#FF8066" opacity=".82"/>
  <circle cx="62.8" cy="63.3" r="2.6" fill="#FF8066" opacity=".82"/>

  <path d="M74.7 23.4 77 29l5.6 2.3L77 33.6l-2.3 5.6-2.3-5.6-5.6-2.3 5.6-2.3 2.3-5.6Z" fill="#FFE45E"/>
  <path d="M21.3 30.2 23 34l3.8 1.7L23 37.4l-1.7 3.8-1.7-3.8-3.8-1.7 3.8-1.7 1.7-3.8Z" fill="#78ECFF"/>
  <path d="M72.1 70.5c1.8 1.3 4.7 1.5 6.7-.4" stroke="#FF7AD9" stroke-width="3.2" stroke-linecap="round"/>

  <defs>
    <radialGradient id="badgeGlow" cx="0" cy="0" r="1" gradientUnits="userSpaceOnUse" gradientTransform="translate(29 21) rotate(47) scale(72 74)">
      <stop stop-color="#FF7AD9" stop-opacity=".72"/>
      <stop offset=".42" stop-color="#78ECFF" stop-opacity=".38"/>
      <stop offset="1" stop-color="#B9FF66" stop-opacity=".25"/>
    </radialGradient>
    <linearGradient id="flameCandy" x1="38" y1="14" x2="58" y2="42" gradientUnits="userSpaceOnUse">
      <stop stop-color="#FFE45E"/>
      <stop offset=".48" stop-color="#FF7AD9"/>
      <stop offset="1" stop-color="#78ECFF"/>
    </linearGradient>
    <linearGradient id="templeBody" x1="29" y1="38" x2="68" y2="76" gradientUnits="userSpaceOnUse">
      <stop stop-color="#FFF7D8"/>
      <stop offset=".52" stop-color="#FFE9A8"/>
      <stop offset="1" stop-color="#FFD3EC"/>
    </linearGradient>
  </defs>
</svg>
